<?xml version="1.0" encoding="UTF-8" standalone="no"?>
<!-- Created with Inkscape (http://www.inkscape.org/) -->

<svg
   xmlns:dc="http://purl.org/dc/elements/1.1/"
   xmlns:cc="http://creativecommons.org/ns#"
   xmlns:rdf="http://www.w3.org/1999/02/22-rdf-syntax-ns#"
   xmlns:svg="http://www.w3.org/2000/svg"
   xmlns="http://www.w3.org/2000/svg"
   xmlns:xlink="http://www.w3.org/1999/xlink"
   xmlns:sodipodi="http://sodipodi.sourceforge.net/DTD/sodipodi-0.dtd"
   xmlns:inkscape="http://www.inkscape.org/namespaces/inkscape"
   version="1.0"
   width="100"
   height="100"
   viewBox="0 0 28.222221 28.222221"
   id="svg2"
   xml:space="preserve"
   sodipodi:version="0.32"
   inkscape:version="0.48.5 r10040"
   sodipodi:docname="RedArrow.svg"
   inkscape:output_extension="org.inkscape.output.svg.inkscape"
   inkscape:export-filename="G:\BusinessIntelligence\_Open\GIS\Symbols\RedArrow.png"
   inkscape:export-xdpi="90"
   inkscape:export-ydpi="90"><metadata
   id="metadata24"><rdf:RDF><cc:Work
       rdf:about=""><dc:format>image/svg+xml</dc:format><dc:type
         rdf:resource="http://purl.org/dc/dcmitype/StillImage" /><dc:title></dc:title></cc:Work></rdf:RDF></metadata><sodipodi:namedview
   inkscape:window-height="712"
   inkscape:window-width="1024"
   inkscape:pageshadow="2"
   inkscape:pageopacity="0.0"
   guidetolerance="10.0"
   gridtolerance="10.0"
   objecttolerance="10.0"
   borderopacity="1.0"
   bordercolor="#666666"
   pagecolor="#ffffff"
   id="base"
   inkscape:zoom="0.96725249"
   inkscape:cx="194.8819"
   inkscape:cy="164.68386"
   inkscape:window-x="-4"
   inkscape:window-y="-4"
   inkscape:current-layer="Layer_x0020_1"
   showgrid="false"
   inkscape:window-maximized="0" />
 <defs
   id="defs4"><radialGradient
   gradientUnits="userSpaceOnUse"
   id="radialGradient6315"
   fy="80.25"
   fx="55"
   r="101"
   cy="55"
   cx="55">
   <stop
   id="stop6317"
   offset="0"
   style="stop-color:#7f0000;stop-opacity:1;" />
   <stop
   id="stop6319"
   offset="0.44999999"
   style="stop-color:#cd0002;stop-opacity:1;" />
   <stop
   id="stop6321"
   offset="1"
   style="stop-color:#dc0003;stop-opacity:1;" />
  </radialGradient><linearGradient
   id="linearGradient1898"><stop
     style="stop-color:white;stop-opacity:1"
     offset="0"
     id="stop1900" /><stop
     style="stop-color:white;stop-opacity:0"
     offset="1"
     id="stop1902" /></linearGradient>
  <style
   type="text/css"
   id="style6" />
   <mask
   id="id0">
  <linearGradient
   x1="55"
   y1="12.5001"
   x2="55"
   y2="55.000099"
   id="id1"
   gradientUnits="userSpaceOnUse">
   <stop
   style="stop-color:white;stop-opacity:1"
   offset="0"
   id="stop10" />
   <stop
   style="stop-color:white;stop-opacity:0"
   offset="1"
   id="stop12" />
  </linearGradient>
    <rect
   width="73.6978"
   height="42.576302"
   x="18.1511"
   y="12.4619"
   style="fill:url(#id1)"
   id="rect14" />
   </mask>
  <radialGradient
   cx="55"
   cy="55"
   r="101"
   fx="55"
   fy="80.25"
   id="id2"
   gradientUnits="userSpaceOnUse"
   xlink:href="#radialGradient6315"
   spreadMethod="pad">
   <stop
   style="stop-color:#ff0000;stop-opacity:1;"
   offset="0"
   id="stop17" />
   <stop
   style="stop-color:#ad0000;stop-opacity:1;"
   offset="0.44999999"
   id="stop19" />
   <stop
   style="stop-color:#ff0003;stop-opacity:1;"
   offset="1"
   id="stop21" />
  </radialGradient>
 <linearGradient
   x1="55"
   y1="12.5"
   x2="55"
   y2="55.000099"
   id="linearGradient1904"
   xlink:href="#linearGradient1898"
   gradientUnits="userSpaceOnUse" /><radialGradient
   inkscape:collect="always"
   xlink:href="#radialGradient6315"
   id="radialGradient8011"
   cx="55"
   cy="55"
   fx="55"
   fy="55"
   r="50.5"
   gradientUnits="userSpaceOnUse" /><radialGradient
   inkscape:collect="always"
   xlink:href="#radialGradient6315"
   id="radialGradient9000"
   gradientUnits="userSpaceOnUse"
   cx="55"
   cy="55"
   fx="55"
   fy="55"
   r="50.5" /><linearGradient
   inkscape:collect="always"
   xlink:href="#linearGradient1898"
   id="linearGradient9002"
   gradientUnits="userSpaceOnUse"
   x1="55"
   y1="12.5"
   x2="55"
   y2="55.000099" /></defs>
 <g
   id="Layer_x0020_1"
   transform="translate(0,-81.777779)">
  
  
  
  
  <g
   id="g8994"
   transform="matrix(0.27156572,0,0,0.27987683,-1.2990183,80.414002)"><circle
     id="circle25"
     style="fill:url(#radialGradient9000);fill-opacity:1;fill-rule:nonzero;stroke:#780000;stroke-width:5.92666626;stroke-miterlimit:4;stroke-opacity:1;stroke-dasharray:none"
     transform="translate(0.291777,0.291777)"
     r="47.5"
     cy="55"
     cx="55"
     sodipodi:cx="55"
     sodipodi:cy="55"
     sodipodi:rx="47.5"
     sodipodi:ry="47.5"
     d="M 102.5,55 C 102.5,81.233526 81.233526,102.5 55,102.5 28.766474,102.5 7.5,81.233526 7.5,55 7.5,28.766474 28.766474,7.5 55,7.5 c 26.233526,0 47.5,21.266474 47.5,47.5 z" /><path
     id="path27"
     style="fill:none;stroke:#e1f0ca;stroke-width:0.98777777;stroke-miterlimit:4;stroke-opacity:0.78823499;stroke-dasharray:none"
     d="M 55,11 C 79.2967,11 99,30.7033 99,55 99,79.2967 79.2967,99 55,99 30.7033,99 11,79.2967 11,55 11,30.7033 30.7033,11 55,11 z"
     inkscape:connector-curvature="0" /><polygon
     transform="matrix(1,0,0,-1,0,110)"
     id="polygon29"
     style="fill:#000000;fill-opacity:1;fill-rule:nonzero"
     points="25,61.4181 60.3839,61.4181 42.6864,79.1156 60.8844,79.1156 85,55 85,55 60.8844,30.8844 42.6864,30.8844 60.3839,48.5819 25,48.5819 " /><path
     id="path31"
     style="fill:url(#linearGradient9002);fill-opacity:1"
     d="m 55,12.5 c 15.7275,0 29.4612,8.5478 36.8108,21.2498 C 84.4612,46.4518 70.7275,55.0001 55,55.0001 39.2725,55.0001 25.5388,46.4518 18.1892,33.7498 25.5388,21.0478 39.2725,12.5 55,12.5 l 0,0 z"
     inkscape:connector-curvature="0" /></g>
 </g>
</svg>